<?xml version="1.0" encoding="utf-8"?>
<!-- Generator: Adobe Illustrator 30.2.1, SVG Export Plug-In . SVG Version: 9.03 Build 0)  -->
<svg version="1.0" id="Layer_1" xmlns="http://www.w3.org/2000/svg" xmlns:xlink="http://www.w3.org/1999/xlink" x="0px" y="0px"
	 viewBox="0 0 1280 524.58" style="enable-background:new 0 0 1280 524.58;" xml:space="preserve">
<style type="text/css">
	.st0{fill:none;stroke:#7B878B;stroke-width:0;stroke-miterlimit:10;}
	.st1{fill:none;stroke:#7A7A75;stroke-width:0;stroke-miterlimit:10;}
	.st2{fill:none;stroke:#E3A37C;stroke-width:0;stroke-miterlimit:10;}
	.st3{fill:none;stroke:#6A2E0C;stroke-width:0;stroke-miterlimit:10;}
	.st4{fill:#021E32;}
	.st5{fill:#D25713;}
	.st6{fill:none;stroke:#02121C;stroke-width:0;stroke-miterlimit:10;}
	.st7{fill:#010505;}
	.st8{fill:#F5F0E8;}
</style>
<path class="st0" d="M790.32,48.89l-3.34-0.12c-0.34-0.01-0.58,0.32-0.48,0.64c6.91,21.89,16.65,52.25,29.22,91.09
	c1.89,5.83,3.11,9.94,2.38,15.17c-0.64,4.57-1.18,9.16-1.64,13.78c-0.23,2.38-0.15,4.26,0.26,5.64c3.12,10.39,6.24,20.76,9.37,31.1"
	/>
<line class="st2" x1="1005.01" y1="389.18" x2="1005.13" y2="388.65"/>
<path class="st1" d="M1005.13,388.65c3.23-16.6,6.39-33.23,9.49-49.85c2.53-13.57,5.03-26.72,7.48-39.44
	c2.54-13.14,5.05-26.28,7.52-39.44c0.18-0.94,0.41-2.64,0.69-5.09"/>
<path class="st0" d="M1030.31,254.84c1.18-4.65,2.22-9.34,3.11-14.06c0.13-0.7,0.28-1.2,0.44-1.5c0.03-0.05,0.09-0.03,0.09,0.03
	v169.55c0,0.38,0.31,0.68,0.68,0.68l197.43,0.09"/>
<line class="st1" x1="1123.61" y1="206.94" x2="1252.06" y2="206.83"/>
<line class="st1" x1="1247.05" y1="145.57" x2="1065.3" y2="145.57"/>
<path class="st0" d="M1065.3,145.57l-12.46-0.1c-0.38-0.01-0.67-0.36-0.6-0.73l2.38-12.64c0.03-0.11-0.07-0.23-0.19-0.22
	l-10.38,0.25"/>
<path class="st1" d="M1044.04,132.13l-66.05-0.26c-0.17-0.01-0.32,0.14-0.32,0.32l0.18,123.89"/>
<path class="st3" d="M1005.13,388.65c-0.09,0.11-0.13,0.29-0.12,0.53"/>
<path class="st8" d="M765.4,48.89c2.3,0.2,3.74,0.3,4.34,0.3c9.52-0.05,19.04-0.13,28.57-0.26l144.79,0.04
	c6.63,0.31,13.25,0.3,19.87-0.01h62.7c6.37,0.38,12.8,0.34,19.29-0.13c-2.35,12.55-5.33,25.67-7.16,37.07
	c-0.17,1.08-0.43,2.05-0.78,2.93c-0.09,0.23-0.44,0.16-0.44-0.09v-22.6c0-0.44-0.36-0.81-0.81-0.81H795.74
	c-0.35,0-0.63,0.28-0.63,0.63v65.3c0,0.44,0.35,0.79,0.79,0.79h72.18c0.27,0,0.49,0.22,0.49,0.49v188.23c0,0.44,0.35,0.79,0.79,0.79
	h83.06c0.26,0,0.46-0.21,0.46-0.46l0.05-65.01l0.03,18.87c0,0.11,0.16,0.15,0.21,0.04c1.29-2.73,1.85-5.61,1.7-8.63
	c-0.09-1.64-0.11-2.71-0.09-3.17c0.09-1.45,0.09-17.98-0.01-49.59c-0.05-15.7-0.05-32.09,0.01-49.16
	c0.02-5.67-0.21-15.75-0.04-23.54c0.05-2.18-0.24-3.98-0.15-5.99c0.03-0.6,0.5-1.1,1.1-1.16c2.38-0.26,5.18,0.08,7.01,0.04
	c12.54-0.25,24.9-0.26,37.09-0.01c4.85,0.09,10.37-0.44,15.61-0.31c1.67,0.05,3.54-0.24,5.63-0.85c0.11-0.03,0.11-0.19,0.01-0.23
	c-0.57-0.2-1.2-0.29-1.9-0.27l10.38-0.25c0.12-0.01,0.21,0.11,0.19,0.22l-2.38,12.64c-0.07,0.38,0.22,0.73,0.6,0.73l12.46,0.1
	c1.38,1.07,3.57,1.62,6.58,1.63c21.94,0.1,34.82,0.11,38.66,0.05c7.51-0.13,13.9-0.16,19.14-0.09c14.52,0.21,29.33-0.04,44.14,0.15
	c7.31,0.09,15.65,0.09,25.02-0.02c18.38-0.22,33.06-0.3,44.05-0.26c2.48,0.01,3.87-0.48,4.18-1.47l8.25,0.15
	c0.37,0.01,0.67,0.31,0.67,0.68v59.87c0,0.31-0.26,0.56-0.56,0.56h-3.35c0.01-1.13-0.78-1.72-2.36-1.77
	c-8.8-0.28-19.32-0.27-31.55,0.02c-14.67,0.34-27.39,0.42-38.17,0.23c-4.92-0.09-11.93-0.09-21.01-0.01
	c-5.75,0.05-12.75-0.11-21-0.46c-4.61-0.19-10.11,0.02-14.37,2.09l-4.79,0.03c-0.19,0-0.34,0.15-0.34,0.34v36.31
	c0,0.27,0.22,0.48,0.49,0.48h126.25c0.4,0,0.72,0.32,0.72,0.72v60.09c0,0.47-0.37,0.85-0.84,0.87l-2.61,0.07
	c-0.19-0.07-0.26-0.16-0.19-0.27c0.05-0.07,0.11-0.13,0.17-0.17c0.07-0.05,0.06-0.17-0.03-0.19l-1.3-0.32
	c-0.6-0.15-1.23-0.24-1.85-0.28c-6.16-0.33-12.15-0.51-17.97-0.54c-19.38-0.12-45.56-0.15-78.54-0.09
	c-8.26,0.01-16.42-0.55-24.72,0.7c-0.74,0.11-1.29,0.75-1.29,1.5c0.01,3.89-0.06,13.54-0.21,28.95c-0.04,4.6,0.09,8.63,0.41,12.1
	c0.05,0.58,0.52,1.03,1.11,1.07c5,0.24,10.65,0.36,16.95,0.37c11.73,0.01,23.41-0.07,35.04-0.22c6.09-0.08,11.75,0.21,17.54,0.11
	c17.7-0.3,35.33-0.04,55.66,0.01c5.95,0.01,12.27,0.89,17.7-0.09c0.58-0.11,1.09,0.4,1.01,0.98c-0.79,5.06-1.44,9.96-1.95,14.69
	c-2.04,18.64-2.85,27.35-4.24,35.37c-0.48,2.72-0.52,5.62-0.15,8.69c0.03,0.23-0.19,0.4-0.41,0.32c-2.41-0.97-4.71-1.41-7.67-1.2
	c-5.06,0.37-10.83,0.64-17.31,0.83c-0.28,0.01-0.36,0.4-0.11,0.52l1.94,0.93l-197.43-0.09c-0.38,0-0.68-0.31-0.68-0.68V239.3
	c0-0.05-0.07-0.07-0.09-0.03c-0.16,0.3-0.31,0.8-0.44,1.5c-0.89,4.72-1.93,9.41-3.11,14.06c-0.26-0.54-0.56-0.87-0.92-0.99
	c-0.38-0.12-0.77,0.13-0.81,0.52c-0.32,2.51-0.67,4.68-1.05,6.51c-0.79,3.68-1.95,9.39-3.51,17.13c-0.91,4.52-1.48,7.47-1.69,8.83
	c-0.97,6.23-2.25,11.17-2.88,16.59c-0.42,3.54-2.21,8.55-2.69,11.59c-1.86,11.66-4.17,23.81-6.92,36.44
	c-1.11,5.1-1.44,9.36-2.58,15.19c-1.57,7.98-2.81,14.88-3.73,20.67c-0.46,2.85-0.93,4.13-1.85,7.32c-1.28,4.42-1.67,9.38-2.62,13.06
	c-0.61,2.32-1.01,4.83-1.22,7.54c-0.89,11.76-5.32,27.1-5.69,34.49c-0.03,0.54-0.52,0.94-1.05,0.86c-2.79-0.42-5.51-0.62-8.16-0.58
	c-20.86,0.32-40.77,0.39-59.74,0.23c-5.81-0.05-10.65-0.33-15.66,0.08c-0.38,0.03-0.74-0.19-0.87-0.56
	c-4.42-12.41-8.32-24.17-11.69-35.26c-1.06-3.51-2.5-7.42-3.55-9.71c-0.41-0.9-1.22-3.35-2.42-7.34
	c-3.23-10.76-6.1-19.72-8.62-26.89c-2.2-6.24-4.28-12.82-6.25-19.76c-1.95-6.87-5-16.66-9.14-29.35c-1.77-5.44-2.71-9.77-4.55-14.57
	c-3.69-9.62-7.51-22.97-10-29.75c-1.6-4.38-2.2-9.09-3.86-13.29c-2.58-6.51-3.98-12.49-6.47-20.37c-1.28-4.08-2.6-9.81-4.49-14.47
	c-2.65-6.54-4.89-13.91-7.37-20.94c-0.48-1.35-1.2-1.97-2.16-1.86c-3.12-10.35-6.24-20.71-9.37-31.1c-0.41-1.38-0.5-3.26-0.26-5.64
	c0.46-4.62,1.01-9.21,1.64-13.78c0.73-5.22-0.48-9.33-2.38-15.17c-12.57-38.84-22.32-69.2-29.22-91.09
	c-0.1-0.32,0.15-0.65,0.48-0.64L765.4,48.89L765.4,48.89z"/>
<path class="st8" d="M1221.87,145.8c-0.3,0.99-1.7,1.48-4.18,1.47c-10.99-0.05-25.67,0.03-44.05,0.26
	c-9.37,0.11-17.71,0.11-25.02,0.02c-14.8-0.19-29.61,0.06-44.14-0.15c-5.24-0.07-11.63-0.04-19.14,0.09
	c-3.83,0.07-16.72,0.05-38.66-0.05c-3.01-0.01-5.2-0.56-6.58-1.63L1221.87,145.8L1221.87,145.8z"/>
<path class="st8" d="M216.64,386.82l-31.2,1.19c-0.92-1.2-2.96-1.17-4.42-1.2c-17.81-0.09-30.18,0.69-48.85,1.16
	c-18.97,1.51-36.5,2.18-54.79,2.38c-12.45,1.35-30.85,2.26-43.05,2.34c-0.4,0.01-0.72-0.31-0.73-0.7
	c-0.1-11.82,0.18-20.56-0.34-31.39c-0.79-5.49,0.32-16.46-1.38-27.16c-0.1,0-0.17,0.07-0.18,0.16c0,0-0.57,7.64-0.57,7.64
	l-0.87-79.93c2.9,4.72,1.28-117.38-0.31-79.86c-0.66-3.75-0.98-73.89-0.9-79.84c-0.09-1.28,159.83-6.79,160.27-7.27
	c0.36,0.72,1.43,1.08,3.24,1.09c20.12-0.15,18.85,0.62,32.52-0.3c8.38-0.75,10.54-0.13,19.16-1.19c6.3-1.31,25.08-0.34,30.43-0.99
	c5.26-0.53,29.18-0.85,37.39-1.81c3.06,0.25,13.53-2.48,15.63,0.98c-0.56,63.76,0.18,119.81-0.29,184.18
	c0.33,33.05,1.1,69.74-0.23,101.05c-1.03,0.97-2.14,1.48-3.33,1.5c-10.82,0.35-17.93,0.02-27.17,2.67
	c-4.88,0.33-14.09,1.42-19.55,1.99c-5.49-0.7-26.29-0.87-27.75-0.63C237.79,383.16,227.03,383.03,216.64,386.82 M179.36,105.23
	c-68.51,0.32-127.86,43.05-137.08,112.58c-5.36,36.74,0.97,74.46,21.9,105.25c33.07,46.57,92.98,59.63,148.05,53.7l-0.73,0.48
	c-0.28,0.19-0.15,0.63,0.19,0.62c22.41,0.15,57.44-13.25,74.89-28.99c3.41-3.41,9.25-7.72,11.76-12.13
	c4.16-5.4,8.73-9.35,11.81-16.6c4.28-9.03,7.59-16.96,9.9-23.8c1.99-6.41,1.68-11.58,2.98-19.74c-0.01-1-1.14-1.65-1.99-1.75
	c-20.93-2.23-39.29-3.55-60.11-5.15c-4.09,0.45-23.31-3.48-25.56-0.36c-1.34,11.73-9.12,24.87-18.9,31.33
	c-3.09,1.76-12.52,5.9-16.75,6.65c-32.37,5.82-60.57-10.27-67.52-43.42c-0.19-2.83-0.88-5.38-1.61-7.85
	c0.25-3.67-1.84-12.45-1.52-14.98c1.25-14.21,4.52-30.45,11.85-42.66c10.21-17.17,29.39-24.31,48.68-24.92
	c0.97-0.32-0.85-0.98-1.07-1.1c25.56-0.06,39.4,14.57,46.96,36.81c0.67-0.94,83.53-10.66,82.87-13.05
	c-2.75-10.1-4.91-19.15-8.63-28.84c-9.42-20.33-27.69-39.7-49.42-49.36c-24.45-9.28-28.03-11.22-49.87-13.72
	C199.9,104.67,189.66,101.1,179.36,105.23L179.36,105.23z"/>
<g>
	<path class="st2" d="M697.08,337.02c0.84-1.81-14.56-0.43-14.98-0.84c-0.46,0-0.84,0.38-0.84,0.84c0.82,0.88-1.57,76.99,0.84,76.85
		c0,0,14.14,0,14.14,0C698.66,414.03,696.27,337.87,697.08,337.02 M721.77,336.94c0.69-1.57-15.02-0.28-15.35-0.67
		c-2.01-0.14,0.13,76.18-0.56,76.88c-0.69,1.57,15.02,0.28,15.36,0.66c0.38,0,0.69-0.31,0.69-0.69L721.77,336.94 M746.46,336.89
		c0.79-1.43-14.8-0.25-15.03-0.61c-1.79-0.14,0.1,76.22-0.5,76.85c-0.79,1.43,14.81,0.25,15.03,0.6c0.35,0,0.63-0.28,0.63-0.63
		C746.59,413.1,746.46,336.89,746.46,336.89 M771.08,336.86c0.57-1.44-15.01-0.26-15.34-0.62c-1.8-0.13-0.02,76.36-0.63,76.99
		c-0.57,1.44,15.01,0.26,15.34,0.62c0.34,0,0.62-0.28,0.62-0.62V336.86"/>
	<path class="st5" d="M689.54,268.17c-5.98-54.88-9.82-95.86-14.53-150.36c-0.71-1.5,16.91-0.09,17.1-0.56
		c2.1,0.04,12.14,138.39,13.6,138.88c0,0,9.57-0.79,9.57-0.79c-2.43-46.95-8.02-83.78-11.06-129.06c0.22-1.96-1.38-7.86,0.11-8.99
		c0,0,63.42,0,63.42,0c0.62,0,1.1,0.55,1.02,1.17c-1.42,11.77-2.24,19.87-3.68,31.36c-6.79,53.67-12.03,111.1-17.09,163.46
		c-16.81-0.03-34.96-0.69-53.57,0.03c-0.56,0.01-1.03-0.41-1.07-0.96C693.32,312.2,689.65,268.3,689.54,268.17L689.54,268.17z"/>
	<path class="st5" d="M697.08,413.03c0.84,1.81-14.56,0.43-14.98,0.84c-0.46,0-0.84-0.38-0.84-0.84c0.82-0.88-1.57-76.99,0.84-76.85
		c0,0,14.14,0,14.14,0C698.66,336.01,696.27,412.18,697.08,413.03L697.08,413.03z"/>
	<path class="st5" d="M721.9,413.13c0.69,1.57-15.02,0.33-15.35,0.72c-2.02,0.14-0.13-76.18-0.83-76.88
		c-0.69-1.57,15.02-0.33,15.35-0.72c0.38,0,0.69,0.31,0.69,0.69L721.9,413.13L721.9,413.13z"/>
	<path class="st5" d="M745.15,413.1c0.79,1.43-14.8,0.3-15.02,0.66c-1.79,0.15-0.17-76.22-0.77-76.84
		c-0.79-1.43,14.8-0.3,15.03-0.66c0.35,0,0.63,0.28,0.63,0.63C745.02,336.89,745.15,413.1,745.15,413.1L745.15,413.1z"/>
	<path class="st5" d="M771.08,413.22c0.57,1.44-15.01,0.26-15.34,0.62c-1.8,0.13-0.02-76.36-0.63-76.99
		c-0.57-1.44,15.01-0.26,15.34-0.62c0.34,0,0.62,0.28,0.62,0.62V413.22L771.08,413.22z"/>
</g>
<path class="st0" d="M422.67,228.1c-0.99-0.09-0.01,56.41-0.34,56.74c12.77,0.51,28.2-0.01,45.71,0.08
	c10.02-0.05,22.43-1.24,29.74-8.79c12.79-13.02,9.56-40-9-45.34C465.67,225.26,450.03,229.49,422.67,228.1"/>
<path class="st1" d="M513.78,431.2c-9.89-18.32-23.16-41.43-32.6-58.31c-10.79-17.48-13.29-27.97-18.09-28.68
	c-15.09,0.4-28.95-0.28-40.62,0.36c0,0,0.01,86.21,0.01,86.21"/>
<path class="st8" d="M422.67,228.1c27.35,1.39,43-2.85,66.11,2.69c18.55,5.35,21.79,32.32,9,45.35c-7.31,7.55-19.72,8.74-29.74,8.79
	c-17.51-0.09-32.94,0.43-45.71-0.08C422.68,284.49,421.68,228.04,422.67,228.1z"/>
<path class="st8" d="M513.78,432.2c26.4,2.84,64.53,0.16,82.38,0.96c-2.18-0.58-1.37,0.54-2.78,0.87
	c-18.05,1.28-14.56,0.49-42.22,0.37c-7.18-0.09-14.98,0.23-22.22-0.09c-6.54-0.73-13.19,2.2-17.66-3.15
	c-9.02-12.67-15.06-27.31-23.27-40.82c-2.65-5.15-12.81-24.07-18.4-32.93c-3.07-4.48-3.97-10.11-9.88-10.28
	c-11.39-0.66-23.15,0.29-35.39-0.12c-1.08,19.9-0.49,28.92-0.52,51.06c-0.21,10.43,0.81,23.11-1.34,33.72
	c0.25-0.25-0.49-86.51,0.23-86.46c11.87,0.08,25.33,0.04,40.38-0.11c4.74,0.62,7.34,11.27,18.09,28.68
	C490.62,390.78,503.87,413.86,513.78,432.2L513.78,432.2z"/>
<g>
	<path class="st8" d="M677,47.86c-5.1,0.46-10.22,0.58-15.35,0.34c6.61-0.64,12.64,4.97,10.47,11.66
		c-2.02,8.72-4.13,20.77-8.67,29.16c-3.68,23.12-11.52,55.28-16.82,76.29c-8.37,30.14-17.36,73.16-25.91,103.06
		c-2.4,18.85-9.84,36.18-12.89,55.7c-1.36,7.57-3.73,15.8-7.4,22.58c-5.23,8.36-7.16,15.43-4.99,25.53
		c-2.63,9.41-4.05,20.53-6.57,29.86c-13.52-23.93-28-46.57-41.08-70.72c32.06-18.67,47.72-54.2,41.42-91.8
		c-17.85-98.38-149.41-65.11-219.77-71.92c0.47-0.44,14.39-119.32,15.55-119.25C482.21,46.81,579.69,48.36,677,47.86z"/>
	<path class="st8" d="M513.78,432.7c33.63-0.35,62.81-0.36,87.53-0.01c4.19,1.03,5.4,8.59,8.2,11.75
		c9.93,18.51,20.18,31.84,24.69,44.69c-95.85-0.45-205.51-0.09-306.26-0.03c2.22-23.9,6.06-46.17,9.49-69.34
		c1.63-0.28-0.11,13.23,1.4,13.05c24.1-0.9,51.59,0.37,83.65-0.54c3.53-29.01-0.35-57.23,1.86-84.77
		c12.24,0.41,24.01-0.54,35.4,0.12c5.92,0.16,6.82,5.8,9.88,10.28c16.37,26.58,25.89,49.48,41.67,73.75
		c4.47,5.36,11.12,2.41,17.66,3.15c24.38-0.53,49.67,2.05,67.22-1.14C578.19,432.83,540.26,435.55,513.78,432.7L513.78,432.7z"/>
</g>
<path class="st5" d="M1005.13,388.65l-0.12,0.53C1005,388.94,1005.04,388.77,1005.13,388.65L1005.13,388.65z"/>
</svg>
