<?xml version="1.0" encoding="utf-8"?>
<!-- Generator: Adobe Illustrator 30.2.1, SVG Export Plug-In . SVG Version: 9.03 Build 0)  -->
<svg version="1.0" id="Layer_1" xmlns="http://www.w3.org/2000/svg" xmlns:xlink="http://www.w3.org/1999/xlink" x="0px" y="0px"
	 viewBox="0 0 500.46 539.24" style="enable-background:new 0 0 500.46 539.24;" xml:space="preserve">
<style type="text/css">
	.st0{fill:none;stroke:#7B878B;stroke-width:0;stroke-miterlimit:10;}
	.st1{fill:none;stroke:#7A7A75;stroke-width:0;stroke-miterlimit:10;}
	.st2{fill:none;stroke:#E3A37C;stroke-width:0;stroke-miterlimit:10;}
	.st3{fill:none;stroke:#6A2E0C;stroke-width:0;stroke-miterlimit:10;}
	.st4{fill:#021E32;}
	.st5{fill:#D25713;}
	.st6{fill:none;stroke:#02121C;stroke-width:0;stroke-miterlimit:10;}
	.st7{fill:#010505;}
	.st8{fill:#F5F0E8;}
</style>
<path class="st0" d="M57.42,235.47c-8.92,36.15-9.14,72.99-0.7,110.51c0.3,1.31,1.05,3.92,2.25,7.82"/>
<path class="st2" d="M353.42,410.76c0-0.62-0.5-1.13-1.13-1.13h-21.39c-0.62,0-1.13,0.5-1.13,1.13v94.56c0,0.62,0.5,1.13,1.13,1.13
	h21.39c0.62,0,1.13-0.5,1.13-1.13V410.76 M388.71,411.02c0-0.72-0.59-1.31-1.3-1.3l-20.33-0.04c-0.72,0-1.3,0.57-1.3,1.3
	l-0.16,94.21c0,0.72,0.59,1.31,1.3,1.3l20.33,0.04c0.72,0,1.3-0.57,1.3-1.3L388.71,411.02 M424.06,410.71
	c0-0.58-0.48-1.06-1.06-1.06h-20.62c-0.58,0-1.06,0.48-1.06,1.06v94.66c0,0.58,0.48,1.06,1.06,1.06H423c0.58,0,1.06-0.48,1.06-1.06
	V410.71 M459.21,411.08c0-0.89-0.72-1.62-1.61-1.62l-19.21-0.03c-0.89,0-1.62,0.72-1.62,1.61l-0.16,93.79
	c0,0.89,0.72,1.62,1.61,1.62l19.21,0.03c0.89,0,1.62-0.72,1.62-1.61L459.21,411.08"/>
<path class="st5" d="M475.97,62.24c-1.52,22.73-3.58,45.84-6.14,69.36c-1.64,15.13-2.61,30.53-3.86,43.86
	c-1.59,17.11-3.02,33.62-4.31,49.53c-0.26,3.3-1.26,13.57-3,30.82c-0.41,4.11-0.69,8.07-0.86,11.9c-0.21,5.31-1.17,10.06-1.67,15.82
	c-2.19,24.95-3.33,38.53-3.44,40.76c-0.3,5.94-0.61,9.94-0.91,12.01c-1.38,9.5-1.35,20.23-2.2,28.99c-0.09,1.05-0.98,1.86-2.03,1.86
	H340.88c-1.01,0-1.86-0.74-1.99-1.74c-0.7-5.23-1.17-10.22-1.39-14.96c-0.61-13.7-2.54-28.38-3.41-40.46
	c-1.56-21.97-4.98-48.11-5.99-63.15c-0.62-9.37-2.12-20.02-2.19-26.85c-0.05-4.62-1.01-11.22-1.91-16.29
	c-0.12-0.73-0.32-2.9-0.57-6.53c-1.47-20.88-2.5-34.69-3.11-41.42c-3.23-35.86-5.19-59.1-5.9-69.74c-0.23-3.41-0.46-6.36-0.72-8.84
	c-0.48-4.78-0.74-7.73-0.79-8.84c-0.23-4.62-0.6-9-1.11-13.14c-1.48-11.79-2.12-22.63-2.4-33.96c-0.01-0.53,0.41-0.97,0.94-0.97
	h28.6c0.64,0,1.17,0.49,1.22,1.11l19.64,237.95c0.08,0.97,0.93,1.7,1.9,1.62l14.36-1.19c0.58-0.04,1.02-0.56,0.98-1.15l-19.61-237.6
	c-0.04-0.41,0.29-0.77,0.7-0.77h120.7c0.49,0,0.89,0.44,0.83,0.93c-0.93,8.89-1.92,21.63-2.99,38.2c-0.05,0.8-0.23,1.52-0.53,2.19
	C476.05,61.77,475.98,61.99,475.97,62.24L475.97,62.24z"/>
<path class="st4" d="M238.54,389.05l17.25,2.32c0.19,0.03,0.2,0.29,0.01,0.34c-7.83,2.01-15.61,2.25-23.34,0.7
	c-15.23-3.03-29.76-7.84-43.64-14.43c-6.28-2.98-12.15-8.2-18.39-12.18c-4.04-2.58-6.25-4.04-6.64-4.4
	c-9.3-8.56-14.11-17.61-15.93-30.5c-1.27-9.08-4.19-18.87-4.62-29.36c-0.52-12.67,0.34-25.36,2.6-38.07
	c2.69-15.09,4.25-23.45,4.69-25.07c1.96-7.16,8.31-14.31,14.44-18.47c4.8-3.26,13.12-10.49,20.6-14.3c0.56-0.28,2.29-1.38,5.19-3.29
	c6.23-4.07,13.37-7.63,21.41-10.71c4.09-1.58,9.91-2.72,17.45-3.45c3.8-0.37,11.67-1.36,23.6-2.98c0.89-0.12,1.62-0.77,1.85-1.63
	c2.84-10.53,0.34-24.38,1.5-32.81c1.47-10.69,1.89-18.92,1.25-24.66c-1.14-10.04-1.99-17.8-2.56-23.24
	c-0.24-2.32-0.25-9.26-0.04-20.86c0.01-0.37-0.12-0.74-0.36-1.03c-1.1-1.29-2.23-1.91-3.41-1.89c-4.76,0.08-13.16,0.05-25.18-0.09
	c-2.31-0.03-4.53,0.12-6.67,0.42c-5.05,0.74-12.91,1.99-23.59,3.74c-5.06,0.82-11.2,3.01-18.86,5.18
	c-9.17,2.61-16.17,5.04-20.99,7.29c-14.84,6.92-23.32,10.91-25.46,11.98c-8.32,4.16-14.77,8.08-19.36,11.77
	c-9.7,7.79-18.29,13.81-25.93,21.16c-5.74,5.51-9.29,9.1-10.67,10.77c-6.53,7.94-12.15,15.34-16.84,22.21
	c-4.08,5.98-8.67,14.03-13.77,24.18c-6.16,12.28-12.27,24.87-18.33,37.78c3.33-13.58,7.78-26.33,13.36-38.27
	c12.61-27.03,32.5-51.15,55.14-70.71c13.64-11.77,29.46-21.78,47.47-30.05c19.25-8.84,38.73-15.01,58.41-18.51
	c10.72-1.91,20.47-3.01,29.24-3.29c9.9-0.3,19.7-0.08,29.39,0.7c0.6,0.05,1.06,0.56,1.06,1.15v113.72c0,0.27-0.23,0.49-0.49,0.46
	c-15.3-1.22-30.05,0.21-44.23,4.31c-7.35,2.12-15.54,5.94-24.55,11.46c-7.22,4.44-13.97,10.39-20.21,17.85
	c-17.94,21.45-25.75,46.68-23.43,75.69c2.13,26.83,13.08,48.58,32.81,65.23C196.41,379.23,215.98,387.16,238.54,389.05
	L238.54,389.05z"/>
<path class="st4" d="M238.75,389.05l20.37,0.53c0.38,0.01,0.7,0.33,0.7,0.72l0.11,76.31c-5.02,10.15-6.17,21.23-3.46,33.22
	c0.09,0.42-0.2,0.83-0.62,0.89c-2.93,0.33-5.51-0.66-9.2-0.62c-15.44,0.17-32.32-0.99-50.66-3.5c-3.07-0.41-5.55-0.87-7.43-1.39
	c-3.86-1.05-7.16-1.02-10.89-2.9c-0.38-0.2-0.78-0.33-1.19-0.41c-7.49-1.5-12.99-3.05-16.48-4.62c-7.25-3.26-15.57-6.88-24.94-10.84
	c-3.98-1.68-10.83-5.68-20.55-12.03c-2.13-1.39-4.59-3.43-7.38-6.1c-6.73-6.41-9.38-9.37-16.89-15.36
	c-3.66-2.92-6.66-5.82-9.02-8.71c-8.18-10-16.68-20.15-25.51-30.48c-2.72-3.18-5-6.37-6.84-9.59
	c-6.32-11.08-10.64-21.21-16.92-35.37c-0.79-1.82-2.23-3.47-4.31-5c-1.21-3.9-1.95-6.51-2.25-7.82
	c-8.44-37.53-8.22-74.36,0.7-110.51c6.06-12.91,12.16-25.49,18.33-37.78c5.1-10.15,9.69-18.21,13.77-24.18
	c4.69-6.86,10.31-14.27,16.84-22.21c1.38-1.67,4.93-5.26,10.67-10.77c7.65-7.35,16.23-13.37,25.93-21.16
	c4.58-3.68,11.04-7.61,19.36-11.77c2.13-1.07,10.61-5.06,25.46-11.98c4.82-2.25,11.82-4.68,20.99-7.29
	c7.66-2.17,13.79-4.36,18.86-5.18c10.68-1.75,18.54-2.99,23.59-3.74c2.13-0.3,4.36-0.45,6.67-0.42c12.02,0.15,20.42,0.17,25.18,0.09
	c1.18-0.01,2.31,0.61,3.41,1.89c0.24,0.29,0.37,0.66,0.36,1.03c-0.21,11.59-0.2,18.54,0.04,20.86c0.57,5.45,1.42,13.2,2.56,23.24
	c0.65,5.74,0.23,13.97-1.25,24.66c-1.15,8.43,1.34,22.27-1.5,32.81c-0.24,0.86-0.97,1.51-1.86,1.63c-11.93,1.62-19.8,2.61-23.6,2.98
	c-7.54,0.73-13.36,1.87-17.45,3.45c-8.04,3.07-15.19,6.64-21.41,10.71c-2.9,1.91-4.64,3.01-5.19,3.29
	c-7.49,3.8-15.81,11.04-20.6,14.3c-6.14,4.16-12.48,11.32-14.44,18.47c-0.44,1.62-2,9.98-4.69,25.07
	c-2.25,12.71-3.11,25.4-2.6,38.07c0.44,10.49,3.35,20.29,4.62,29.36c1.82,12.89,6.63,21.94,15.93,30.5c0.38,0.36,2.6,1.82,6.64,4.4
	c6.24,3.98,12.11,9.2,18.39,12.18c13.87,6.59,28.41,11.4,43.64,14.43c7.73,1.55,15.5,1.31,23.34-0.7c0.19-0.05,0.17-0.32-0.01-0.34
	L238.75,389.05L238.75,389.05z"/>
<path class="st4" d="M260.25,466.6l0.23,37.38c0.01,0.69-0.54,1.26-1.23,1.27c-6.02,0.09-11.06,0.13-15.15,0.12
	c-36.29-0.04-71.21-7.79-104.75-23.23c-14.28-6.59-27.24-14.5-38.88-23.76C66.46,431.3,39.9,395.86,27.95,353.8
	c2.08,1.52,3.51,3.18,4.31,5c6.28,14.15,10.6,24.29,16.92,35.37c1.84,3.22,4.12,6.41,6.84,9.59c8.83,10.32,17.33,20.47,25.51,30.48
	c2.36,2.89,5.37,5.79,9.02,8.71c7.51,5.99,10.16,8.94,16.89,15.36c2.8,2.66,5.25,4.7,7.38,6.1c9.73,6.35,16.58,10.35,20.55,12.03
	c9.37,3.96,17.69,7.58,24.94,10.84c3.5,1.58,9,3.13,16.48,4.62c0.41,0.08,0.81,0.21,1.19,0.41c3.74,1.88,7.04,1.86,10.89,2.9
	c1.88,0.52,4.36,0.98,7.43,1.39c18.34,2.5,35.22,3.67,50.66,3.5c3.68-0.04,6.27,0.95,9.2,0.62c0.42-0.05,0.72-0.46,0.62-0.89
	C254.08,487.83,255.23,476.75,260.25,466.6L260.25,466.6z"/>
<path class="st5" d="M353.42,505.32c0,0.62-0.5,1.13-1.13,1.13h-21.39c-0.62,0-1.13-0.5-1.13-1.13v-94.56c0-0.62,0.5-1.13,1.13-1.13
	h21.39c0.62,0,1.13,0.5,1.13,1.13V505.32L353.42,505.32z"/>
<path class="st5" d="M388.55,505.24c0,0.72-0.58,1.29-1.3,1.3l-20.33-0.04c-0.71,0-1.29-0.58-1.3-1.3l0.16-94.21
	c0-0.72,0.58-1.29,1.3-1.3l20.33,0.04c0.71,0,1.29,0.58,1.3,1.3L388.55,505.24L388.55,505.24z"/>
<path class="st5" d="M424.06,505.38c0,0.58-0.48,1.06-1.06,1.06h-20.62c-0.58,0-1.06-0.48-1.06-1.06v-94.66
	c0-0.58,0.48-1.06,1.06-1.06H423c0.58,0,1.06,0.48,1.06,1.06V505.38L424.06,505.38z"/>
<path class="st5" d="M459.04,504.87c0,0.89-0.73,1.61-1.62,1.61l-19.21-0.03c-0.9,0-1.61-0.73-1.61-1.62l0.16-93.79
	c0-0.89,0.73-1.61,1.62-1.61l19.21,0.03c0.9,0,1.61,0.73,1.61,1.62L459.04,504.87L459.04,504.87z"/>
</svg>
