<?xml version="1.0" encoding="UTF-8"?>
<svg id="Layer_1" xmlns="http://www.w3.org/2000/svg" version="1.1" viewBox="0 0 2034.17 757.87">
  <!-- Generator: Adobe Illustrator 30.2.1, SVG Export Plug-In . SVG Version: 2.1.1 Build 1)  -->
  <defs>
    <style>
      .st0 {
        fill: #27bdd4;
      }

      .st1 {
        fill: #f0eada;
      }
    </style>
  </defs>
  <path class="st1" d="M1255.55,438.86c.01-.27.23-.49.5-.49h24.73c.57,0,1.04.47,1.04,1.04,0,0,0,.01,0,.02-.17,8.57-.1,15.41.21,20.54,1.15,19.24,15.82,32.15,35.38,27.78,22.55-5.04,23.3-35.88,16.74-52.86-4.17-10.79-12.3-19.63-21.54-27.19-.1-.08-4.95-3.91-14.54-11.48-10.95-8.65-20.04-17.46-27.26-26.44-6.98-8.68-11.55-20.21-13.4-32.25-1.88-12.31-.75-24.79,3.39-37.45,9.15-27.98,35.04-34.95,61.4-31.7,17.5,2.17,31.49,12.28,37.88,28.45,4.89,12.35,5.74,23.4,5.75,36.98,0,.23-.18.41-.41.41h-26.14c-.22,0-.4-.18-.4-.41,0-.01,0-.03,0-.04,2.37-22.04-4.95-44.68-32.02-42.36-13.11,1.12-20.7,12.48-22.23,24.52-1.33,10.45-.51,20.66,4.44,30.15,4.55,8.71,9.8,15.63,15.75,20.74,11.01,9.46,24.18,19.09,32.9,27.18,8.56,7.94,16.61,16.5,21.4,27.15,3.02,6.69,4.98,12.8,5.89,18.33,2.11,12.83,1.17,25.7-2.8,38.63-3.87,12.6-10.9,21.86-21.07,27.79-8.97,5.23-19.84,6.99-29.77,7.27-6.29.17-12.57-.59-18.84-2.29-12.87-3.5-24.08-12.69-29.82-24.95-3.27-6.99-5.35-14.33-6.24-22.02-.97-8.48-1.28-16.83-.92-25.05Z"/>
  <path class="st1" d="M687.43,318.53c-.11.95-.13,1.84-.07,2.68.99,13.13.36,25.54.4,39.01.13,49.06.13,99.15-.01,150.28,0,.29-.23.52-.51.52h-24.04c-.55,0-.99-.44-.99-.99h0v-239.58c0-.29.24-.53.53-.53h33.68c.12,0,.23.07.28.19,1.14,2.67,2.17,5.41,3.08,8.2,18.63,57.16,34.68,106.71,48.13,148.65,1.51,4.69,3.07,9.04,4.69,13.03.03.07.1.1.17.07.05-.02.08-.07.08-.12v-169.09c0-.49.4-.88.89-.88h22.65c.7,0,1.26.56,1.26,1.25v238.45c0,.78-.63,1.41-1.41,1.41h-25.9c-.55,0-1.03-.38-1.17-.91-.81-3.17-2.28-7.85-4.41-14.06-3.21-9.36-11.96-36.67-26.27-81.94-4.79-15.16-9.62-29.33-14.33-44.42-2.46-7.85-5.19-16.38-8.18-25.58-3.01-9.24-5.62-17.81-7.83-25.7-.06-.2-.27-.3-.46-.24-.14.04-.24.16-.26.3Z"/>
  <path class="st1" d="M925.48,270.71c-10.93,32.52-17.81,52.94-20.66,61.27-1.49,4.37-3.47,10.3-5.94,17.78-7.77,23.53-15.47,46.24-23.1,68.13-1.08,3.11-1.62,6.46-1.63,10.06-.03,25.78,0,53.18.09,82.21,0,.49-.4.89-.89.89h-25.69c-.32,0-.58-.26-.58-.57v-85.12c0-.68-.09-1.37-.27-2.03-1.35-4.85-2.96-10.02-4.83-15.52-7.56-22.2-11.38-34.03-17.88-52.51-4.94-14.06-9.91-31.23-14.46-44.71-3.47-10.29-7.74-23.52-12.81-39.69-.12-.36.08-.74.44-.86.07-.02.14-.03.21-.03h25.8c.23,0,.44.15.51.38,9.44,29.64,21.17,65.59,35.19,107.85.98,2.94,1.69,6.15,2.6,9.4.04.13.18.21.31.16.08-.03.14-.09.17-.17,1.32-5.89,2.88-11.59,4.69-17.09,9.63-29.32,19.06-58.11,28.27-86.38,1.76-5.39,2.71-9.54,4.45-13.62.14-.33.46-.55.82-.55h24.67c.3,0,.55.25.55.55,0,.06,0,.11-.03.17Z"/>
  <path class="st1" d="M1431.23,406.33c-7.09,11.46-13.69,20.08-13.69,31.4-.01,32.53-.01,56.73,0,72.58,0,.39-.32.71-.72.71h-25.93c-.45,0-.82-.36-.82-.81h0v-239.45c0-.44.35-.79.79-.79h25.68c.47,0,.86.38.86.85h0c.06,14.87.1,52.25.11,112.13,0,.34.08.59.23.76.15.15.4.16.55,0,.03-.03.06-.07.08-.11.95-2.01,1.66-3.43,2.13-4.26,6.86-12.11,16.53-29.21,29-51.3,8.35-14.77,14.83-27.52,23.42-42.28,2.79-4.78,5.42-9.93,7.9-15.44.09-.19.27-.31.48-.31h26.36c.25,0,.45.2.45.45,0,.08-.02.15-.06.22l-58.55,107.16c-.3.54-.33,1.19-.08,1.76,12.31,28.19,26.85,57.51,38.72,83.01,8.23,17.68,15.7,33.53,22.41,47.54.12.24.02.53-.22.64-.06.03-.13.05-.2.05-8.86.21-17.35.24-25.47.09-1.36-.03-2.39-.77-3.09-2.23-13.03-27.18-23.39-48.93-31.06-65.24-6.6-14.03-12.62-26.39-18.07-37.09-.18-.34-.6-.48-.94-.31-.11.06-.21.15-.28.26Z"/>
  <path class="st1" d="M514.75,510.5v-216.71c0-.27-.21-.48-.48-.48h-43.55c-.27,0-.48-.21-.48-.48v-22.31c0-.27.21-.48.48-.48h115.01c.27,0,.48.21.48.48v22.25c0,.27-.21.48-.48.48h-43.14c-.27,0-.48.21-.48.48v216.77c0,.27-.21.48-.48.48h-26.4c-.27,0-.48-.21-.48-.48h0Z"/>
  <rect class="st1" x="606.88" y="270.01" width="27.12" height="241.06" rx=".83" ry=".83"/>
  <path class="st1" d="M998.68,269.9c13.23.13,31.47.17,54.71.1,3.07-.01,6.23.08,9.48.29,13.03.8,24.54,6.03,33.52,15.38,1.73,1.81,3.32,3.98,4.76,6.53,5.95,10.51,8.93,21.84,8.95,34.01.09,61.87.12,102.55.08,122.06-.01,4.97-.1,8.47-.26,10.5-.79,10.06-3.58,19.6-8.37,28.62-7.48,14.09-22.73,20.5-37.66,22.79-3.71.57-9.47.84-17.28.81-1.49,0-17.24-.03-47.26-.07-.57,0-1.04-.47-1.04-1.04h0v-239.62c0-.2.16-.36.36-.36,0,0,0,0,.01,0ZM1025.18,293.91l.34,192.16c0,.18.15.33.33.33l29.53-.05c15.55-.03,28.13-14.28,28.1-31.83l-.22-129.26c-.03-17.55-12.66-31.76-28.22-31.73,0,0,0,0,0,0l-29.53.05c-.18,0-.33.15-.33.33h0Z"/>
  <path class="st1" d="M1162.79,293.96v80.76c0,.22.17.4.39.4h57.68c.37,0,.67.3.67.67h0v22.07c0,.63-.51,1.14-1.14,1.14h-57.04c-.49,0-.88.39-.88.88,0,.02,0,.03,0,.05.26,4.63.39,7.73.39,9.28,0,34.77-.06,60.16-.19,76.19,0,.45.32.83.76.9.37.06.77.09,1.19.09,44.76-.05,67.3-.04,67.63.05.13.03.73,0,1.82-.06,1.21-.07,1.8.44,1.78,1.54-.11,6.61-.06,13.08.17,19.4.03.87-.08,1.9-.31,3.07-.06.32-.35.55-.68.55h-99.3c-.23,0-.41-.18-.41-.4v-239.95c0-.34.27-.61.61-.61h99c.51,0,.92.42.92.93h0v21.94c0,.31-.25.56-.56.56h-71.95c-.3,0-.55.25-.55.55Z"/>
  <g>
    <path class="st0" d="M1814.73,414.58c.38-4.19.56-10.4.55-18.63-.08-57.57-.16-99.44-.24-125.61,0-.21.17-.38.37-.38h33.32c.29,0,.53.24.53.54h0v239.8c0,.37-.3.67-.67.67h-36.49c-.35,0-.65-.23-.74-.56-3.43-12.91-6.2-22.89-8.31-29.93-14.2-47.3-27.75-93.74-40.65-139.33-.26-.93-.51-1.56-.74-1.87-.08-.1-.22-.12-.32-.04-.05.04-.08.1-.09.17v170.57c0,.55-.44.99-.98.99h-33.39c-.24,0-.44-.2-.44-.44h0v-239.8c0-.4.33-.72.73-.72h46.3c.2,0,.37.13.43.32,1.39,4.81,2.37,9.48,3.86,14.39,4.71,15.43,8.88,29.65,12.51,42.65.72,2.56,7.93,27.24,21.64,74.05,1.39,4.76,2.33,9.15,2.82,13.16Z"/>
    <path class="st0" d="M1703.57,390.49c.01,31.63.65,46.1-.67,68.93-.88,15.17-6.97,31.64-19.32,40.78-10.79,7.99-22.94,10.7-36.47,10.65-18.03-.06-38.76.05-62.2.32-.42,0-.76-.33-.77-.76,0,0,0-.01,0-.02.05-4.65.07-44.61.05-119.87-.02-75.26-.06-115.22-.11-119.88,0-.43.33-.77.75-.78,0,0,.01,0,.02,0,23.44.27,44.17.36,62.2.29,13.53-.05,25.68,2.65,36.48,10.63,12.35,9.14,18.45,25.61,19.34,40.77,1.33,22.83.69,37.3.7,68.94ZM1622.06,306.06l.3,168.24c0,1.01.82,1.82,1.83,1.82l21.53-.03c11.07-.02,20.02-9.54,20-21.26h0s-.22-129.46-.22-129.46c-.02-11.72-9.01-21.2-20.08-21.18l-21.53.03c-1.01,0-1.83.82-1.83,1.83h0Z"/>
    <path class="st0" d="M1963.38,510.62l-7.63-44.62c-.03-.21-.22-.37-.43-.37h-46.26c-.21,0-.4.16-.43.37l-7.49,44.69c-.03.21-.22.37-.43.37h-34.28c-.24,0-.44-.2-.44-.44,0-.02,0-.04,0-.07l40.26-240.17c.03-.21.22-.37.43-.37h53.71c.21,0,.4.16.43.37l41,240.1c.04.24-.12.47-.36.5-.02,0-.04,0-.07,0h-37.59c-.21,0-.4-.16-.43-.37ZM1932.13,432.39c5.66-.03,11.64-.09,17.95-.2.35,0,.63-.3.63-.65,0-.03,0-.06,0-.09-10.6-64.44-16.67-102.53-18.22-114.27-.12-.91-.39-1.36-.8-1.35-.41,0-.68.45-.79,1.36-1.45,11.75-7.24,49.88-17.35,114.4-.06.35.18.68.53.73.03,0,.07,0,.1,0,6.31.06,12.29.08,17.96.06Z"/>
  </g>
  <g>
    <path class="st0" d="M393.63,711.24c.06.04.15.02.18-.05,0-.02.02-.03.02-.05,1.58-13.38,1.25-26.74-.98-40.09-.71-4.23-1.84-8.53-3.39-12.9-2.42-6.8-3.04-10.34-6.18-16.7-7.51-15.22-16.98-29.28-28.41-42.18-2.81-3.17-5.16-5.59-7.05-7.25-2.23-1.96-4.86-4.44-7.89-7.44-1.38-1.35-4.84-4.32-10.39-8.9-7.15-5.89-14.73-11.02-23.36-17.6-2.28-1.74-4.65-3.02-6.73-4.56-.26-.2-.62-.21-.9-.04-8.1,4.98-16.53,9.9-25.28,14.79-5.14,2.86-10.68,5.72-16.62,8.58-7.12,3.42-14.08,7.57-22.1,11.62-19.98,10.1-39.47,21.24-58.49,33.41-1.33.85-3.93,2.42-7.78,4.71-5.24,3.12-10.9,7.42-15.28,10.16-3.17,1.98-5.75,3.67-7.73,5.06-12.46,8.71-24.78,18.49-36.95,29.35-.34.3-.55.58-.64.84-.08.25.05.52.3.6.05.02.1.03.16.02l35.12-.64c2.09-.04,3.81,1.62,3.85,3.7,0,.03,0,.05,0,.08v.58c0,1.94-1.58,3.52-3.53,3.52h-43.9c-.22,0-.43.08-.6.22-.99.81-2.1,1.88-3.31,3.21-6.33,6.92-11.33,13.04-15.01,18.37-4.23,6.13-8.02,14.19-11.36,24.18-.89,2.67-3.74,5.65-6.28,2.67-.17-.19-.3-.41-.41-.65-.62-1.43-1.57-4.5-1.82-6.11-1.93-12.05-2.94-21.69-3.03-28.94-.13-11.19,1.33-21.92,4.39-32.2.81-2.72,1.81-6.03,3-9.9,2.57-8.41,6.56-16.57,10.7-24.07,1.88-3.42,3.86-6.59,5.94-9.5,3.35-4.71,5.68-8.44,8.81-12.09,9.6-11.22,17.41-19.56,23.42-25.02,7.93-7.23,14.49-12.79,19.66-16.7,9.75-7.37,15.58-11.7,17.48-13.01.36-.25.76-.64,1.18-1.15.35-.43.29-1.06-.14-1.41-.02-.02-.04-.04-.07-.05-11.48-7.95-20.93-14.13-30.28-21.91-8.29-6.9-14.9-12.84-19.84-17.81-11.22-11.29-20.93-23.49-28.72-37.28-2.87-5.08-5.04-9.48-6.5-13.21-7.72-19.67-10.99-42.42-6.42-63.34,1.68-7.67,3.84-14.58,6.46-20.72.3-.71.32-1.51.04-2.23-1.51-4-4.08-10.77-5.24-15.6-4.18-17.41-4.35-34.83-.5-52.27,2.73-12.4,8.04-23.4,14.68-34.77,3.29-5.64,7.21-11.21,11.76-16.72.96-1.16,3.9-4.53,8.83-10.1,3.19-3.61,6.31-6.82,9.36-9.62,5.32-4.89,10.82-9.58,16.5-14.07,4.11-3.24,8.79-6.81,14.03-10.7,3.23-2.39,8.15-5.61,14.77-9.67.32-.2.5-.33.55-.4.36-.52.24-1.23-.28-1.59-6.66-4.65-12.19-8.61-16.61-11.89-2.5-1.86-8.4-6.82-17.71-14.88-7.24-6.27-12.84-11.64-16.78-16.09-7.75-8.75-14.23-17.06-19.46-24.92-4.39-6.61-8.32-13.77-11.78-21.5-1.43-3.18-2.6-6.29-3.51-9.32-.87-2.88-2.83-8.29-3.8-12.72-3.58-16.21-4.22-32.92-1.92-50.11.38-2.84,1.27-7.02,2.67-12.55.65-2.55,2.2-3.61,4.66-3.17.27.05.52.18.72.38.85.84,1.5,1.95,1.96,3.34,1.79,5.48,3.59,10.31,5.42,14.49,4.22,9.68,10.55,18.02,18.25,26.39,3.13,3.42,6.42,7.15,10.95,7.09,19.69-.25,32.37-.34,38.03-.29,1.03.01,2.04.11,3.04.29.64.11,1.17.55,1.41,1.15.92,2.29.53,4.1-1.17,5.42-.89.69-2.39,1.02-4.51.99-19.51-.27-32.59-.47-39.26-.58-2.37-.04-4.45-.89-6.25-2.57-8.28-7.68-14.91-15.26-19.88-22.74-3.06-4.6-5.92-9.47-8.59-14.63-.07-.13-.23-.18-.36-.11-.08.04-.13.12-.14.21-.21,2.75-.45,5.57-.72,8.47-1.08,11.33-.13,23.27,2.16,34.01.29,1.35,1.47,5.57,3.55,12.64,1.24,4.21,2.75,8.31,4.55,12.32,5.42,12.11,12.1,22.96,20.04,32.55,2.93,3.53,7.51,8.69,13.77,15.48,5.32,5.77,12.14,11.89,20.47,18.37.18.14,4.02,3.03,11.52,8.67,4.27,3.21,8.33,6.08,12.19,8.61,2.46,1.62,4.79,2.6,6.98,2.95.27.05.56-.01.79-.18,3.65-2.51,7.16-4.7,10.54-6.58,1.88-1.04,7.9-4.38,18.06-10.01,4.76-2.63,8.56-4.59,11.42-5.89,5.46-2.49,9.28-4.93,15.26-7.76,4.71-2.22,9.12-4.47,13.22-6.76,6.92-3.85,12.18-6.34,19.06-10.09,10.19-5.54,20.4-11.26,30.64-17.17,6.66-3.84,10.64-6.25,11.94-7.23.55-.42,2.47-1.57,5.74-3.43,3.79-2.16,6.98-4.76,11.22-7.47,6.44-4.12,10.45-6.78,12.04-7.96,2.24-1.67,7.35-5.48,15.34-11.44,5.02-3.74,8.95-7.29,14.23-11.66.22-.19.25-.52.06-.74-.1-.11-.24-.18-.39-.19-8.12-.13-12.84-.21-14.16-.23-1.96-.02-5.66.11-11.1.39-4.1.22-7.83.14-11.18-.22-.47-.05-.87-.38-1.02-.83-.4-1.21-.53-2.7-.41-4.45.07-.88.8-1.57,1.69-1.57h42.35c.48,0,.95-.13,1.36-.37,2.56-1.5,4.81-3.24,6.74-5.22,6.45-6.6,12.56-14.83,18.34-24.7,3.45-5.9,5.45-12.66,7.56-19.16.6-1.84,1.96-2.51,4.09-2,.27.06.51.22.69.43.7.85,1.2,1.77,1.5,2.77,2.4,7.85,3.84,15.93,4.32,24.26.35,5.98.7,12.62.18,18.23-1.47,15.58-5.44,30.64-11.9,45.17-2.74,6.19-7.21,14.06-10.11,18.99-1.29,2.18-3.91,5.76-7.86,10.75-7.58,9.54-16.77,19.22-27.56,29.05-5.8,5.28-12.62,11.55-19.11,16.21-4.15,2.99-9.49,6.94-16.01,11.85-.28.21-.34.61-.13.88.02.03.04.05.07.08.95.89,1.86,1.64,2.73,2.23,13.21,8.97,25.13,17.97,35.78,27,4.13,3.5,7.38,6.6,9.75,9.29,1.73,1.97,3.87,4.08,6.41,6.33,1.76,1.57,3.82,3.73,6.18,6.5,10.69,12.53,18.98,26.36,24.86,41.51,3.67,9.47,5.89,18.89,6.66,28.28.16,1.92.32,4.57.49,7.95.53,10.5-.83,20.9-3.82,30.78-1.3,4.3-2.64,7.09-4.64,12.25-.6,1.53-.67,2.79-.22,3.78,6.78,14.79,9.61,30.93,8.5,48.42-.64,10.12-2.16,18.76-4.55,25.91-2.06,6.17-4.79,12.87-8.22,20.09-1.38,2.93-3.12,5.91-5.22,8.95-2.53,3.67-4.76,7.66-7.78,11.44-6.16,7.73-10.22,12.63-12.19,14.72-6.74,7.1-14.39,14.36-22.97,21.78-3.03,2.62-6.45,5.27-10.26,7.97-8.1,5.72-10.74,7.83-16.77,11.67-2.84,1.8-4.88,3.22-6.12,4.25-.24.2-.27.55-.08.79.43.52,1.16,1.17,2.18,1.93,13.89,10.36,24.68,18.81,32.37,25.34,24.83,21.09,46.14,48.89,55.28,80.64,6.35,22.07,6.86,44.61,1.53,67.63-.42,1.82-1.51,4.98-3.57,5.19-1.3.13-2.18-.41-2.63-1.6-2.93-7.67-5.11-13.02-6.56-16.03-2.16-4.48-6.01-10.54-9.87-15.53-3.86-4.99-8.21-10.16-13.06-15.5-.71-.79-1.73-1.24-2.79-1.24-6.89-.02-19.62,0-38.2.03-2.44,0-4.48-.2-6.13-.63-1.94-.49-3.96-2.87-2.62-4.99.99-1.57,2.46-2.34,4.41-2.32,16.23.13,27.32.16,33.29.1,1.31,0,1.91.3,2.91.48.14.03.29-.06.32-.21.02-.08,0-.16-.06-.23-.62-.8-1.31-1.47-2.05-2.02-8.14-6.08-17.48-14.71-26.24-20.81-4.19-2.92-8.34-5.97-12.44-9.15-.71-.56-1.95-1.37-3.7-2.42-.23-.14-.38-.37-.43-.64l-.91-5.31c-.13-.73.37-1.43,1.1-1.55.25-.04.51-.01.74.08,1.6.66,3.54,1.8,5.82,3.42,2.85,2.02,6.66,4.69,11.43,7.99,12,8.31,23.1,17.25,33.31,26.81.08.07.21.07.28-.02.03-.03.05-.08.05-.13v-19.44c0-.31-.26-.57-.57-.56-.07,0-.13.01-.2.04-9.2,3.48-20.31,0-21.52-10.77-.8-7.15,5.81-12.52,12.2-13.01,6.44-.48,17.28,2.02,17.24,10.26-.02,3.61-.03,17-.03,40.19,0,.93.59,2.03,1.78,3.3,5.13,5.49,10.01,11.53,14.64,18.11,3.15,4.47,5.92,9.16,8.32,14.05.14.28.35.5.63.65ZM359.71,142.27c6.66-7.75,12.7-16.38,18.11-25.92,3.03-5.34,5.37-10.18,7.02-14.52,1.2-3.16,2.74-7.85,4.63-14.06,1.75-5.77,2.91-10.56,3.49-14.38.84-5.55,1.37-11.67,1.59-18.37.21-6.18-.85-13.41-1.44-18.13-.02-.16-.17-.27-.32-.26-.1.01-.19.08-.23.17-3.39,7.88-8.01,15.32-13.87,22.31-6.04,7.21-11.09,12.69-15.14,16.43-1.49,1.37-4.44,4.08-8.86,8.12-8.34,7.64-19.33,15.91-26.15,20.84-2.59,1.87-5.06,3.93-7.42,6.16-.41.39-.47,1.03-.13,1.48,1.04,1.4,2.45,2.97,3.84,4.13,6.54,5.42,10.87,9.42,13.01,12,2.1,2.54,3.07,5.96,2.9,10.25-.08,2.21-.26,3.71-1.53,5.15-.67.76-1.73,1.05-2.69.74-6.15-2.02-1.2-8.99-4.6-12.38-2.55-2.54-5.49-5.03-8.83-7.49-.2-.15-.49-.11-.64.1-.05.06-.07.13-.08.21-.11.76-.17,1.6-.18,2.52-.03,1.74-.14,11.91-.33,30.51-.05,5.01-.38,8.95-4.36,11.89-4.45,3.28-9.09,4.58-13.92,3.9-5.17-.74-10.46-4.12-11.43-9.41-1.95-10.5,7.2-16.4,16.71-15.77,2,.13,3.85.82,5.54,2.09.11.08.26.06.34-.04.03-.04.05-.1.05-.15-.08-3.38-.05-9.24.08-17.59.08-5.35-.07-11.13-.45-17.33-.01-.26-.24-.46-.49-.44-.08,0-.16.03-.22.07l-37.69,23.26c-.59.36-.95,1.01-.94,1.71.1,8.38.02,20.1-.23,35.15-.08,4.5.98,11.11-.65,16.51-.42,1.4-1.23,2.61-2.41,3.62-8.17,6.92-21.72,5.6-25.89-4.81-5.08-12.67,12.78-19.52,21.77-14.86.02.01.06,0,.07-.03,0,0,0-.02,0-.02l-.28-14.82c0-.23-.19-.41-.42-.4-.07,0-.14.02-.19.05l-33.86,19.55c-.76.44-1.23,1.24-1.24,2.11-.13,12.05-.18,23.89-.13,35.52.02,4.96-6.44,9.1-10.67,10.09-8.6,1.99-15.13-.66-19.58-7.96-.27-.45-.75-.72-1.28-.72h-16.66c-.77,0-1.4-.6-1.44-1.37-.09-1.83.25-3.32,1.02-4.47.32-.48.85-.77,1.43-.78l15.51-.28c.48-.01.94-.21,1.29-.54.38-.35,1.17-1.32,2.37-2.91,4.8-6.35,12.96-7.05,19.98-4.2.28.11.59-.03.71-.3.02-.06.04-.13.04-.2v-37.85c0-.29-.24-.52-.53-.52-.12,0-.24.05-.34.13-1.24,1.06-2.77,2.06-4.61,3.02-19.49,10.1-35,18.4-46.53,24.91-.13.07-1.07.74-2.81,2.01-.26.19-.39.53-.33.85.41,2.03.6,5.51.57,10.44-.13,17.94-.14,34.52-.03,49.73.01,1.88-.26,3.29-.8,4.22-2.37,4.07-5.86,6.59-10.46,7.54-2.9.6-5.49.72-7.77.34-4.66-.76-10.05-4.81-11.05-9.86-.53-2.71-.38-4.96.45-6.77,3.03-6.55,8.3-9.55,15.83-9.01,2.06.15,3.98.65,5.78,1.5.13.06.28.01.35-.11.02-.04.03-.08.03-.12v-45.23c0-.13-.1-.24-.24-.25-.05,0-.1.02-.15.05-2.02,1.51-3.17,2.37-3.45,2.57-7.7,5.62-22.56,15.09-31.86,22.88-6.2,5.19-11.82,10.29-16.84,15.3-.46.46-.49,1.19-.07,1.68.15.18.55.5,1.21.95,3.84,2.7,7.68,5.34,11.49,7.93,3.89,2.63,7.71,6.08,8.68,10.56.5,2.32.63,5.41.39,9.27-.08,1.3-.9,2.45-2.11,2.94l-1.68.68c-1.15.47-2.47-.09-2.94-1.24-.09-.22-.14-.46-.16-.7-.32-4.88-.5-7.41-.54-7.58-1.45-6.18-7.54-10.14-12.73-13.22-.19-.12-.44-.06-.55.13-.04.06-.06.14-.06.21.03,7.69.58,15.46.3,22.98-.21,5.67-.33,14.36-.37,26.08-.02,4.54-.2,10.1-.64,13.15-.76,5.25-3.49,7.21-8.15,9.23-5.68,2.45-11.09,2.18-16.22-.82-3.23-1.88-5.08-4.63-5.54-8.23-.62-4.77.43-8.51,4.32-11.55,4.45-3.49,12.54-4.65,17.93-1.55.16.1.37.04.47-.12.03-.06.05-.12.05-.18v-53.27c0-.23-.18-.41-.41-.41-.12,0-.23.05-.31.14-6.05,6.93-10.49,12.37-13.32,16.31-3.48,4.84-6.3,9.26-8.47,13.26-4.96,9.14-8.74,18.69-11.33,28.64-4.41,16.96-4.17,33.71.74,50.25,1.48,4.98,2.23,7.5,2.25,7.56.07.23.31.36.54.29.11-.03.2-.1.25-.2,6.08-10.66,14.56-21.27,23.59-30.66,6.06-6.3,9.7-10.24,10.93-11.82.61-.79,1.52-1.65,2.72-2.58,2.37-1.85,4.43-4.32,6.94-6.29,8.35-6.56,14.99-11.72,19.92-15.5,2.93-2.23,6.11-4.71,9.54-7.44,5.28-4.2,10.9-8.14,16.87-11.83,2.62-1.61,5.19-3.73,7.36-5.16,9.8-6.43,16.67-11.28,25.22-16.19,6.43-3.69,11.21-6.57,14.34-8.62,5.7-3.74,12.91-7.28,18.89-10.99,5.69-3.54,10.37-6.35,14.03-8.45,17.64-10.09,34.52-20.34,50.64-30.74,7.63-4.93,14.2-9.38,19.71-13.36,5.69-4.12,11.98-8.95,18.86-14.49,6.27-5.05,12.32-10.45,17.5-16.42.18-.21.32-.45.4-.72,3.29-10.27,5.53-21.77,7.87-31.32.06-.22-.08-.45-.3-.51-.08-.02-.16-.02-.23,0-5.72,1.8-13.33,2.72-16.64-3.34-2.87-5.26.1-11.56,6.38-11.84,2.85-.13,4.66,1.1,5.42,3.69.62,2.09.78,4.17.48,6.25-.03.23.13.44.35.47.06,0,.12,0,.18-.01,5.08-1.51,7.45-5,10.11-9.25.2-.32.57-.49.94-.43,1.2.16,2.17.8,2.91,1.92.15.23.22.5.2.78-.12,1.5-.39,3.04-.81,4.61-1.59,5.97-3.06,11.95-4.41,17.96-.79,3.51-1.83,7.31-3.13,11.4-.03.12.03.24.15.27.08.02.16,0,.22-.06ZM239.03,158.18c-1.83.92-3.68,2.05-5.56,3.39-1.34.94-2.32,1.21-2.28,3.22.02.66,0,3.11-.04,7.33,0,.23.19.42.42.42.07,0,.14-.02.2-.05,10.25-5.56,20.11-11.15,29.56-16.76,1.67-.99,3.42-2.12,5.23-3.39.66-.46,1.05-1.2,1.05-2.01v-6.47c0-.33-.27-.6-.6-.6-.11,0-.22.03-.32.09-2.2,1.39-3.98,2.4-5.34,3.03-4.4,2.03-8.33,4.16-11.78,6.37-1.03.66-1.82,1.01-2.38,1.05-.23.02-.45.12-.63.29l-.91.91c-.1.1-.22.18-.35.24-3.17,1.45-5.26,2.43-6.27,2.94ZM314.68,160.25c-.37-3.18-4.21-5.35-8.58-4.85-4.37.51-7.61,3.5-7.25,6.68h0c.37,3.18,4.21,5.35,8.58,4.85,4.37-.51,7.61-3.5,7.25-6.68h0ZM252.37,186.85c0,3.14,3.54,5.68,7.92,5.68h0c4.37,0,7.92-2.54,7.92-5.68h0c0-3.14-3.54-5.68-7.92-5.68h0c-4.37,0-7.92,2.54-7.92,5.68h0ZM356.14,244.4s.09,2.82.26,8.35c.09,2.8.12,5.58.09,8.34-.16,14.06-.26,23.22-.32,27.47,0,.6.47,1.09,1.06,1.09,0,0,0,0,0,0,1.73.03,5.06-.13,7.31.63,4.75,1.59,8.28,5.26,8.42,10.32.15,5.83.22,9.57.2,11.22-.07,6.21,1.27,9.7,6.95,11.74.51.19,2.08.46,4.71.82.3.04.58.17.79.38,1.12,1.1,1.46,2.44,1.02,4.04-.21.75-.84,1.31-1.62,1.41-4.76.64-8.98.81-12.55-2.43-4.61-4.21-6.74-9.38-6.37-15.5.06-.88.1-3.94.14-9.19.04-5.78-4.37-6.8-9.14-6.66-.36.01-.65.31-.65.68v11.59c0,1.38-1.12,2.51-2.51,2.51-.09,0-.19,0-.28-.02l-1.45-.16c-1.83-.18-3.24-1.72-3.24-3.57-.09-17.25-.04-35.15.15-53.7.04-3.72.17-7.74.38-12.06.13-2.47-.23-3.84-1.94-5.45-2.5-2.35-4.76-4.35-6.76-6-10.3-8.46-20.47-15.94-30.52-22.44-2.6-1.67-4.91-3.54-7.32-5.26-1.37-.98-2.71-1.06-4-.23-19.79,12.67-40.1,25.06-60.93,37.17-.18.11-.24.34-.13.52.03.06.08.1.14.14,16.17,9.04,31.9,18.67,47.18,28.87.17.12,6.6,4.5,19.29,13.15,11.47,7.81,24.19,17.85,33.85,25.77,1.94,1.59,7,6.17,15.17,13.74,5.49,5.1,11.22,11.38,14.98,15.55,7.23,8,13.53,16.38,18.91,25.15.13.21.41.28.62.15.1-.06.17-.16.2-.27,1.19-4.56,3.02-8.95,3.89-13.51,2.41-12.48,2.77-24.12,1.1-34.92-1.88-12.15-6.09-24.35-12.64-36.58-1.44-2.7-3.54-6.03-6.28-9.97-3.88-5.58-6.17-8.8-6.87-9.66-6.81-8.27-10.44-12.72-10.91-13.34-.07-.11-.22-.13-.33-.05-.05.04-.09.09-.1.16ZM208.2,215.45c-.11,3.23,3.54,5.98,8.15,6.14,4.61.16,8.44-2.33,8.56-5.56.11-3.23-3.54-5.98-8.15-6.14-4.61-.16-8.44,2.33-8.56,5.56ZM230.46,499.39c5.1-2.7,10.12-5.62,15.05-8.77,8.29-5.28,13.19-8.37,14.69-9.28,20.03-12.1,39.95-25.67,59.78-40.7,8.26-6.25,16-12.58,23.23-18.97,15.45-13.68,28.74-29.43,39.88-47.23.84-1.35,1.45-2.36.53-3.94-.99-1.68-2.13-3.89-3.08-5.17-3.55-4.8-6.46-8.87-8.71-12.19-3.79-5.57-8.58-10.98-12.49-15.06-14.21-14.8-29.77-28.36-46.69-40.68-10.45-7.61-16.65-12.13-18.62-13.57-5.58-4.07-11.95-8.37-19.09-12.9-14.26-9.04-26.78-16.67-37.54-22.91-1.77-1.02-3.29-2.25-5.47-3.95-.32-.25-.74-.32-1.13-.18-2.57.92-4.78,2.67-7.14,3.97-12.94,7.1-25.8,14.85-38.56,23.24-7.06,4.65-11.81,7.42-16.98,11.2-8.98,6.58-19.69,13.5-28.86,20.83-8.78,7-16.83,13.81-24.15,20.42-12.55,11.32-24.14,24.88-34.74,40.67-1.33,1.97-2.66,4.27-4,6.9-.41.8-.43,1.75-.05,2.57,2.19,4.77,4.09,7.3,7.85,12.58,17.76,24.87,41.68,44.18,66.43,63,4.11,3.12,9.66,7.02,16.65,11.69,6.17,4.12,11.68,7.95,16.53,11.47,5.47,3.97,10.65,7.35,15.55,10.15,7.61,4.35,11.43,6.95,18.41,10.82,2.47,1.37,5.82,3.33,10.05,5.89.81.5,1.83.53,2.67.08ZM146.46,256.05c-.08,3.29,3.4,6.04,7.77,6.15h0c4.37.11,7.98-2.47,8.06-5.76h0c.08-3.29-3.4-6.04-7.77-6.15h0c-4.37-.11-7.98,2.47-8.06,5.76h0ZM102.53,311.13c-.2-3.21-3.86-5.59-8.17-5.32-4.31.27-7.64,3.09-7.43,6.3.2,3.21,3.86,5.59,8.17,5.32,4.31-.27,7.64-3.09,7.43-6.3ZM71.53,381.33c-1.15,5.27-2.17,9.6-3.06,13-2.57,9.82-3.28,20.08-2.14,30.78.74,6.86,1.79,12.56,3.16,17.11,1.22,4.05,3.13,9.16,5.73,15.32,6.8,16.15,17.58,29.49,29.09,42.68.1.11.27.12.38.03.07-.06.1-.15.09-.24-.5-3.6-.68-7.26-.56-10.98.34-10.75.17-21.52,0-29.21-.03-1.52-.13-2.79-.3-3.82-.05-.25-.25-.43-.5-.44-3.62-.21-5.86-.43-6.72-.68-10.67-3.04-10.04-11.64-9.85-20.66.17-7.29-1.06-13.38-9.52-13.34-1.92.01-3.56-1.37-3.89-3.26v-.06c-.31-1.78.89-3.48,2.67-3.78.09-.02.18-.03.27-.03,4.8-.42,8.8.74,11.99,3.47,3.76,3.23,5.68,7.2,5.76,11.92.12,7.17.21,11.92.28,14.28.18,5.54,4.98,4.74,8.73,5.03.47.04.88-.31.92-.77,0-.02,0-.04,0-.06l.21-13.36c.02-1.59,1.33-2.86,2.93-2.83.11,0,.22,0,.33.02l.53.07c2.19.29,3.83,2.15,3.83,4.36v69.98c0,.79.31,1.56.86,2.13,2.37,2.46,4.84,4.79,7.41,7,11.99,10.31,25.12,19.87,39.42,28.68.55.34,1.26.32,1.79-.07,7.76-5.61,15.36-10.76,22.81-15.45,4.03-2.55,9.21-5.83,15.55-9.85,6.14-3.89,11.84-7.4,17.09-10.52,2.67-1.58,4.31-2.58,4.91-3,.28-.19.36-.58.16-.86-.05-.07-.1-.12-.17-.17-3.48-2.32-8.5-4.77-12.2-7.12-6.89-4.39-13.55-8.46-19.99-12.21-8.27-4.82-15.82-10.4-23.27-15.26-18.69-12.2-36.19-26.04-53.23-40.95-7-6.12-10.57-10.08-17.98-17.58-8.89-9-16.5-18.8-22.85-29.4-.11-.17-.34-.22-.51-.12-.08.05-.14.13-.16.22ZM355.63,420.64c.79-.11,2.91-.45,6.38-1.03,10.05-1.65,20.56,4.32,17.49,16.01-1.44,5.47-7.04,8.73-12.43,9.05-2.9.18-5.94-.2-9.1-1.15-.22-.06-.45.06-.52.28-.01.04-.02.07-.02.11-.03,1.2-.15,18.72-.35,52.54,0,.42.2.66.61.72.16.02.35-.08.55-.29,5.55-5.91,10.71-12.31,15.49-19.19,9.08-13.1,15.29-27.29,18.63-42.56,2.1-9.6,2.01-18.35,1.38-28.96-.51-8.51-2.46-16.8-5.86-24.87-.07-.16-.25-.24-.42-.17-.06.03-.12.07-.15.14-1.67,2.95-3.64,6.21-5.93,9.79-1.6,2.5-3.91,5.53-6.93,9.09-6.46,7.63-12.78,14.37-18.94,20.22-.06.06-.06.15,0,.21.03.04.08.05.13.05ZM372.88,431.54c.08-2.74-2.08-5.02-4.82-5.09l-5.43-.15c-2.74-.08-5.02,2.08-5.09,4.82l-.02.84c-.08,2.74,2.08,5.02,4.82,5.09l5.43.15c2.74.08,5.02-2.08,5.09-4.82h0s.02-.84.02-.84ZM123.01,647.81c-3.09,0-7.09.18-12.02.51-7.66.53-16.1-.94-18.81-9.19-1.74-5.29-.2-9.82,4.63-13.58,5.95-4.64,14.69-3.51,20.08,1.37,4.12,3.73,3.64,8.17,2.92,13.19-.08.5.27.97.78,1.05.07.01.14.01.21,0,4.39-.35,7.4-.51,9.04-.5,5.97.03,10.34-4.98,14.43-7.62,7.84-5.06,15.45-10.04,22.83-14.93,5.15-3.4,11.57-7.1,15.47-9.48,3.38-2.06,7.3-4.33,11.76-6.81,21.3-11.86,32.81-18.14,47.32-25.56,15.86-8.1,27.06-14.38,44-23.47.06-.03,1.16-.74,3.31-2.12.86-.56,1.27-1.52,1.23-2.89-.24-6.54-.32-11-.23-13.37.18-5.08.25-9.54.21-13.36-.17-15.82-.24-26.48-.19-31.98.02-2.07.35-3.7.99-4.9,4.51-8.48,17.62-10.46,24.77-4.71,4.85,3.9,5.83,10.5,2.54,15.73-3.85,6.15-13.71,7.11-20.01,5.12-.22-.07-.45.05-.52.27-.01.04-.02.08-.02.13v43.45c0,.34.27.61.6.62.11,0,.23-.03.32-.09,18.81-11.31,36.08-24.36,51.82-39.16.39-.37.45-.97.13-1.4-.91-1.24-1.93-2.24-3.06-2.99-4.92-3.3-9.1-6.26-12.55-8.88-5.51-4.18-7.56-10.05-6.15-17.61.32-1.74,1.8-3.04,3.57-3.14l.24-.03c1.36-.17,2.59.78,2.76,2.14.02.13.02.26.02.39l-.24,7.35c0,.22.03.44.09.66.45,1.49,1.36,2.76,2.73,3.8,3.7,2.81,7.45,4.87,10.91,8.23.14.13.36.13.5-.01.06-.07.1-.16.1-.25v-66.46c0-.21-.17-.38-.38-.38-.08,0-.16.03-.23.08-1.88,1.42-4.34,3.53-7.4,6.34-1.8,1.65-4.29,3.73-7.48,6.24-9.86,7.75-20.42,15.59-31.69,23.52-10.38,7.3-22.43,14.23-31.64,20.59-4.75,3.28-8.76,5.84-12.05,7.68-9.07,5.06-17.1,10.82-25.28,15.4-6.08,3.39-10.82,6.22-14.23,8.48-3.3,2.19-8.01,5.1-14.12,8.73-1.54.92-6.49,4.11-14.83,9.56-9.85,6.43-22.12,13.55-30.62,20-4.1,3.11-9.18,6.86-15.25,11.25-.36.26-.57.67-.57,1.12v24.06c0,.36.29.66.65.67.11,0,.21-.02.31-.07,4.35-2.21,8.44-1.89,12.28.96,3.28,2.44,3.04,8.17,2.05,11.45-.67,2.2-3.08,5.25-4.53,6.72-3.71,3.74-7.8,7.47-12.27,11.19-.25.2-.53.36-.84.45l-3.05.89c-.54.16-1.11-.15-1.26-.69-.02-.06-.03-.12-.03-.18-.23-2.21-.34-3.68-.33-4.42.1-8.44.06-14.62-.11-18.52-.09-2.22-.04-4.93.15-8.11.13-2.11.18-4.81.14-8.12-.03-3.28-.08-6.85-.17-10.73,0-.3-.26-.54-.57-.53-.13,0-.25.05-.34.13-6.43,5.62-13.64,12.17-21.62,19.66-5.96,5.58-11.82,12.05-17.59,19.39-7.01,8.92-12.51,17.48-16.51,25.68-3.72,7.63-6.22,13.22-7.5,16.76-3.35,9.26-6.18,20.16-6.65,30.88-.41,9.48-.33,18.57.25,27.26.02.24.23.43.47.41.16,0,.29-.1.37-.24,4.26-8.35,9.16-16.18,14.7-23.48,1.4-1.85,3.05-3.76,4.93-5.72,7.57-7.89,15.4-15.45,23.49-22.68,3.77-3.38,7.73-6.52,11.87-9.44.39-.27.79-.72,1.19-1.33.08-.13.05-.3-.08-.38-.04-.03-.09-.04-.15-.04ZM298.04,492.71c3.87,1.74,7.79,2.05,11.76.93,4.07-1.15,4.31-5.66,1.96-8.4-.27-.31-.61-.55-1-.69-3.2-1.15-5.81-1.55-7.85-1.2-4.11.71-6.8,4.12-5.62,8.45.11.4.39.73.76.9ZM144.59,609.65c2.57-2.5,9.04-7.54,8.01-11.58-.96-3.75-5.41-2.57-7.81-1.07-.48.3-.77.82-.77,1.39v11.02c0,.19.16.34.35.33.08,0,.16-.03.23-.09ZM98.34,635.25c-.1,3.17,3.22,5.84,7.42,5.97,4.2.13,7.68-2.33,7.78-5.49.1-3.16-3.22-5.84-7.42-5.97-4.2-.13-7.68,2.33-7.78,5.49h0ZM345.81,636.82c-.12,3.13,3.36,5.81,7.77,5.98,4.41.17,8.08-2.23,8.2-5.36h0c.12-3.13-3.36-5.81-7.77-5.98h0c-4.41-.17-8.08,2.23-8.2,5.36h0Z"/>
    <path class="st0" d="M227.93,128.87c-.9,0-1.62-.73-1.62-1.62V27.36c0-3.08,1.56-5.57,3.48-5.57h.18c1.92,0,3.48,2.5,3.48,5.57h0v99.89c0,.9-.73,1.62-1.62,1.62h-3.89Z"/>
    <rect class="st0" x="167.8" y="71.73" width="66.86" height="6.92" rx="3.46" ry="3.46" transform="translate(125.68 276.29) rotate(-89.9)"/>
    <rect class="st0" x="255.06" y="41.59" width="6.89" height="66.71" rx="3.44" ry="3.44"/>
    <rect class="st0" x="183.32" y="52.63" width="6.65" height="43.61" rx="3.33" ry="3.33" transform="translate(-.26 .65) rotate(-.2)"/>
    <rect class="st0" x="269.58" y="53.04" width="6.7" height="42.93" rx="3.35" ry="3.35" transform="translate(-.39 1.43) rotate(-.3)"/>
    <rect class="st0" x="240.85" y="52.91" width="6.89" height="43.43" rx="3.4" ry="3.4" transform="translate(-.13 .43) rotate(-.1)"/>
    <rect class="st0" x="193.91" y="71.44" width="43.06" height="6.69" rx="3.11" ry="3.11" transform="translate(140.28 290.09) rotate(-89.9)"/>
    <rect class="st0" x="274.82" y="71.3" width="24.82" height="6.54" rx="3.27" ry="3.27" transform="translate(211.66 361.54) rotate(-89.8)"/>
    <rect class="st0" x="160.09" y="71.2" width="24.71" height="6.62" rx="3.26" ry="3.26" transform="translate(97.64 246.82) rotate(-89.9)"/>
    <rect class="st0" x="154.77" y="66.79" width="7.07" height="15.81" rx="3.54" ry="3.54" transform="translate(-.9 1.94) rotate(-.7)"/>
    <rect class="st0" x="298.12" y="66.73" width="6.92" height="15.51" rx="3.46" ry="3.46" transform="translate(-1.01 4.22) rotate(-.8)"/>
    <path class="st0" d="M164.95,151.61c-.32-.18-.74-.1-.96.21-5.53,7.66-13.88,11.84-23.9,11.38-10.87-.49-19.52-7.92-22.65-18.07-2.07-6.71-2.82-14.04-3.33-20.87-.08-1.03-.73-1.91-1.96-2.66-7.42-4.5-15.71-8.54-20.21-16.73-2.16-3.92-2.83-8.13-2.01-12.63.14-.76.62-1.41,1.3-1.76,1.3-.65,3.59-1.15,5.05-1.09,7.43.28,13.3,2.96,17.61,8.04,4.71,5.55,6.26,13.92,7.39,21.76.04.25.2.46.43.55,3.08,1.27,6.39,3.11,9.92,5.52.53.36,1.24.3,1.71-.14,1.71-1.68,3.33-3.36,5.15-4.37,5.59-3.08,11.89-3.6,17.76-.53,7.66,4,11.36,10.84,11.53,19.44.02,1.17.04,2.83.07,4.97,0,.53.34,1.01.84,1.21,6.93,2.82,14.4,7.77,15.4,15.58.87,6.8-2.86,13.49-9.76,14.78-3.83.71-10.56-.4-12.6-4.5-2.01-4.05-.61-9.27,4.26-10.41,1.5-.35,2.76-.12,3.75.69,2.92,2.34,2.7,4.25,3.9,7.3.18.45.69.67,1.14.49.1-.04.2-.1.28-.18,2.8-2.67,3.33-5.57,1.6-8.7-2.5-4.52-7.35-6.79-11.69-9.29ZM113.52,113.91c-1.65-5.91-4.66-14.46-10.92-16.79-1.8-.68-3.52-.79-5.07-1.35-.26-.1-.55.04-.65.29-.03.08-.04.18-.02.27,1.01,5.59,3.82,10.05,8.63,13.5,2.72,1.96,5.21,3.48,7.46,4.56.2.1.45.02.55-.19.04-.09.05-.19.03-.29ZM161.58,140.19c-1.24-8.54-7.2-16.44-16.57-14.4-2.77.6-4.47,2.35-5.08,4.94-.05.21.06.42.26.5,3.79,1.48,7.12,2.6,10.44,4.36,4.83,2.57,8.18,4.71,10.56,5.01.2.03.38-.11.4-.31,0-.03,0-.07,0-.1ZM123.01,128.15c-.29-.16-.65-.05-.81.23-.07.12-.09.26-.06.39,1.2,6.67,2.11,11.11,2.73,13.31,2.59,9.27,9.58,15.49,19.56,14.53,5.71-.55,10.06-3.27,13.05-8.17.14-.22.12-.52-.05-.73-.57-.69-1.2-1.23-1.91-1.63-5.22-2.92-10.2-5.66-14.94-8.22-.56-.3-1.16-.54-1.79-.73-.38-.12-.79.1-.91.49-.02.05-.03.11-.03.17-.23,3.46,2.71,6.37,5.42,8.67.62.53,1,1.1,1.14,1.7.16.76-.38,1.51-1.2,1.68-.05.01-.1.02-.15.02-7.44.87-12.3-4.98-12.78-11.94-.17-2.55-.22-4.14-.14-4.77.09-.65-.24-1.29-.82-1.6l-6.31-3.4ZM141.23,147.77c-.11.35.19.76.68.91.48.15.97-.01,1.08-.37s-.19-.76-.68-.91c-.48-.15-.97.01-1.08.36Z"/>
    <path class="st0" d="M323.17,221.64l-.1,62.48c0,1.46-1.18,2.64-2.64,2.64-.25,0-.51-.04-.75-.11l-1.96-.59c-1.12-.33-1.9-1.36-1.9-2.53l.12-62.5c0-1.46,1.19-2.64,2.65-2.63.26,0,.52.04.77.12l1.95.59c1.11.34,1.87,1.37,1.86,2.53Z"/>
    <path class="st0" d="M291.38,234.05c-.33,0-.6.28-.6.61v16.82c0,1.8-1.47,3.27-3.28,3.27h-.64c-1.72,0-3.11-1.39-3.11-3.11,0-.03,0-.06,0-.08.16-5.87.07-12.44-.25-19.72-.17-3.83,2.35-4.62,5.89-4.79,4.76-.23,10.82-.64,15.7.36.95.19,1.64,1.04,1.64,2.01v39.93c0,1.64-1.33,2.97-2.97,2.97h-.53c-1.73,0-3.14-1.39-3.16-3.12-.02-1.78-.04-10.34-.08-25.66,0-3.18-.2-6.08-.57-8.69-.08-.55-.55-.95-1.1-.94l-6.95.13Z"/>
    <path class="st0" d="M274.55,252.22c0,.96-.78,1.73-1.74,1.72h-1.6c-2.23-.02-4.03-2.02-4.02-4.49h0s.05-15.18.05-15.18c0-2.46,1.82-4.45,4.05-4.45h1.6c.96.01,1.73.79,1.72,1.75h0s-.07,20.64-.07,20.64Z"/>
    <rect class="st0" x="332.63" y="236.07" width="7.04" height="46.6" rx="3.52" ry="3.52" transform="translate(-.9 1.17) rotate(-.2)"/>
    <path class="st0" d="M229.9,281.8c7.66,0,13.45,5.35,14.13,13.04.31,3.48.39,9.26.23,17.33-.15,7.49-3.65,12.59-10.49,15.31-1.33.53-2.63.79-3.92.79s-2.59-.27-3.92-.8c-6.84-2.73-10.32-7.84-10.46-15.33-.14-8.07-.06-13.85.26-17.33.69-7.68,6.49-13.02,14.16-13.01ZM236.78,294.97c.03-3.61-2.88-6.55-6.48-6.57h-.59c-3.61-.03-6.55,2.87-6.57,6.48l-.13,18.91c-.03,3.61,2.88,6.55,6.48,6.57h.59c3.61.03,6.55-2.87,6.57-6.48h0l.13-18.91Z"/>
    <path class="st0" d="M304.07,358.95c-.27,0-.49.22-.49.49v73.23c0,1.49-1.21,2.69-2.7,2.69h-1.72c-1.86,0-3.37-1.51-3.37-3.37h0v-72.25c0-.29-.24-.53-.53-.53h-130.74c-.24,0-.44.19-.44.43h0v72.5c0,1.68-1.21,3.11-2.86,3.39l-1.55.26c-1.62.28-3.15-.81-3.43-2.42-.03-.17-.04-.33-.04-.5v-73.74c0-.12-.1-.22-.22-.22h-13.89c-1.52,0-2.75-1.23-2.75-2.76h0v-1.6c0-1.68,1.34-3.06,3.03-3.09,28.26-.59,56.23-.57,83.91.05.24,0,.44-.19.44-.43,0,0,0,0,0,0v-10.89c0-.31-.23-.58-.54-.64-6.95-1.21-14.26-4.91-17.88-11.39-2.08-3.74-3.95-9.06-4.44-13.55-.2-1.86-.3-3.33,1.22-4.54,2.75-2.16,5.12,1.18,5.37,3.79.79,8.22,4.89,14.08,12.32,17.59,3.65,1.73,6.24,1.69,10.38,1.15,1.63-.21,3.03-.6,4.2-1.17,7.6-3.73,11.25-10.18,11.26-18.51,0-1.52,1.1-2.82,2.61-3.08l2.03-.35c1.34-.23,2.61.67,2.83,2.01.03.17.04.35.03.52-.66,14.07-7.97,24.5-22.17,27.47-.41.08-.7.44-.69.86l.18,9.7c.01.74.62,1.33,1.36,1.33,29.09-.32,53.63-.49,83.51-.02,1.48.02,2.67,1.23,2.67,2.71v2.29c0,1.42-1.15,2.57-2.57,2.57h-14.37Z"/>
    <rect class="st0" x="174.54" y="366.81" width="111.3" height="7.17" rx="3.41" ry="3.41" transform="translate(-.65 .4) rotate(-.1)"/>
    <rect class="st0" x="137.32" y="458.74" width="7.46" height="67.53" rx="3.73" ry="3.73" transform="translate(-.86 .25) rotate(-.1)"/>
    <rect class="st0" x="121.29" y="462.81" width="7.2" height="45.84" rx="3.6" ry="3.6"/>
    <path class="st0" d="M169.79,509.93l.28-17.3c.03-2.02,1.48-3.75,3.47-4.13l.25-.04c1.41-.25,2.76.69,3.02,2.1.02.14.04.27.04.41.15,7.88.23,13.38.24,16.5.02,6.54-.2,9.66-7.23,9.94-4.99.2-9.13.14-12.44-.18-2.2-.21-3.31-1.46-3.34-3.74-.2-14.68-.26-27.47-.21-38.36,0-1.44,1.18-2.61,2.62-2.61.28,0,.56.05.83.14l.51.13c1.9.51,3.23,2.23,3.23,4.2v32.52c0,.73.59,1.33,1.33,1.33,0,0,.02,0,.03,0l6.6-.13c.43,0,.77-.36.78-.79Z"/>
    <path class="st0" d="M185.9,492c-.01-.94.74-1.72,1.68-1.73h0l1.65-.02c2.17-.03,3.96,1.75,4,3.99l.25,17.69c.03,2.23-1.71,4.06-3.88,4.1l-1.65.03c-.94.01-1.72-.74-1.73-1.68h0s-.32-22.37-.32-22.37Z"/>
    <path class="st0" d="M198.44,570.27c-.24-8.05-.4-16.8-.47-26.25-.03-2.92.67-5.27,3.63-5.48,1.52-.11,5.09-.19,10.7-.26.52,0,.99-.31,1.2-.79,4.22-9.54,13.31-15,23.51-11.89,4.76,1.46,8.04,5,9.83,10.61.09.28.39.44.67.35.1-.03.2-.1.26-.19,1.52-1.99,3.3-3.81,5.35-5.45,4.95-3.95,12.78-4.9,18.98-4.56,2.59.14,3.88,1.78,3.87,4.91,0,2.93-4.26,3.26-6.29,2.99-6.79-.91-12.66,1.25-17.6,6.5-.98,1.04-1.71,2.31-2.77,3.67-1.15,1.48-2.95,1.4-5.03,1.38-3.24-.02-15.01-.01-35.31.03-1.34,0-2.28.07-2.81.19-.42.1-.71.47-.71.9.14,19.37.21,30.51.2,33.43,0,6.8-6.28,11.55-12.17,13.14-3.32.89-6.56.58-9.73-.94-8.37-4-11.98-14.02-4.14-21.01,5.05-4.51,12.96-4.91,18.49-1.12.1.07.24.05.31-.05.03-.04.04-.09.04-.13ZM222.18,538.52l17.77-.33c.05,0,.09-.05.08-.1h0v-.08c-.07-3.61-4.11-6.46-9.01-6.36h-.18c-4.91.1-8.82,3.1-8.75,6.71,0,0,0,0,0,0v.08s.04.08.09.08ZM182.16,580.8c0,3.15,3.55,5.7,7.92,5.69h0c4.37,0,7.9-2.57,7.9-5.72h0c0-3.15-3.55-5.7-7.92-5.69h0c-4.37,0-7.9,2.57-7.9,5.72h0Z"/>
    <path class="st0" d="M315.06,624.13c.09,1.41-.93,1.59-3.07.53-1.76-.87-3.47-2.5-5.12-4.89-2.88-4.17-2.5-7.92,1.15-11.24.71-.65,2.29-1.29,3.55-1.81.47-.19.7-.73.51-1.2-.03-.08-.08-.16-.13-.22-1.71-2.17-3.28-4.15-4.71-5.92-3.83-4.76,3.48-8.54,4.77-13.01.21-.74.17-1.52-.12-2.23l-3.61-8.89c-.17-.43-.05-.93.31-1.23.62-.52,1.3-.68,2.06-.49.27.07.51.22.69.43,2.59,3.05,5.12,5.94,7.57,8.66.52.57,1.27,1.63,2.25,3.17.79,1.23,1.11,2.34.39,3.93-.95,2.1-2.11,4.23-3.47,6.39-.59.92-.93,1.9-1.04,2.93-.03.32.02.65.15.95,1.84,4.3,3.11,6.8,3.79,7.5,1.39,1.43,2.32,3.08,2.77,4.95.11.44-.17.89-.61,1-.2.05-.41.02-.59-.08l-1.02-.56c-.31-.17-.67-.22-1.01-.14-3.86.84-7.78,1.16-7.5,6.13.02.28.08.55.19.8l1.75,4.16c.06.12.09.25.09.38Z"/>
    <rect class="st0" x="226.48" y="619.61" width="7.09" height="109.69" rx="3.54" ry="3.54"/>
    <path class="st0" d="M199.54,706.5c-.86,0-1.57-.7-1.57-1.56l-.11-59.99c0-2.15,1.5-3.89,3.35-3.89h.15c1.86,0,3.36,1.73,3.37,3.88l.11,59.99c0,.87-.7,1.58-1.56,1.58h-3.74Z"/>
    <path class="st0" d="M259.48,707.08l-1.9-.7c-1.34-.5-2.23-1.78-2.23-3.21v-57.68c0-1.91,1.38-3.54,3.27-3.86l.38-.07c1.51-.26,2.94.76,3.2,2.28.03.15.04.31.04.47v60.85c0,1.14-.92,2.06-2.05,2.06-.24,0-.48-.04-.71-.13Z"/>
    <path class="st0" d="M244.16,652.03l.38.06c2.1.32,3.64,2.14,3.6,4.26l-.57,36.22c-.03,1.63-1.37,2.93-3,2.9h-.49c-1.6-.03-2.9-1.32-2.93-2.93l-.69-37.38c-.03-1.73,1.34-3.15,3.07-3.18.21,0,.42.01.62.05Z"/>
    <rect class="st0" x="193.97" y="670.5" width="43.23" height="6.69" rx="3.34" ry="3.34" transform="translate(-458.64 888.25) rotate(-89.9)"/>
    <rect class="st0" x="183.28" y="653.86" width="7.1" height="42.11" rx="3.55" ry="3.55" transform="translate(-2.35 .66) rotate(-.2)"/>
    <rect class="st0" x="269.44" y="653.92" width="7.2" height="41.99" rx="3.6" ry="3.6"/>
    <rect class="st0" x="169.32" y="661.98" width="6.4" height="25.98" rx="3.2" ry="3.2"/>
    <rect class="st0" x="283.85" y="662.04" width="7.14" height="25.43" rx="3.57" ry="3.57"/>
    <ellipse class="st0" cx="301.82" cy="675.12" rx="7.88" ry="3.58" transform="translate(-377.45 967.48) rotate(-89.2)"/>
    <rect class="st0" x="154.78" y="667.86" width="6.99" height="15.11" rx="3.49" ry="3.49" transform="translate(-8.24 1.98) rotate(-.7)"/>
    <ellipse class="st0" cx="202.01" cy="707.38" rx=".84" ry=".24" transform="translate(-103.51 38.16) rotate(-8.6)"/>
  </g>
</svg>